<svg width="55" height="54" viewBox="0 0 55 54" fill="none" xmlns="http://www.w3.org/2000/svg">
<path fill-rule="evenodd" clip-rule="evenodd" d="M27.2062 0C19.991 0.000904452 13.0715 2.86756 7.96952 7.96952C2.86756 13.0715 0.000904452 19.991 0 27.2062C0 39.2198 7.84533 49.4017 18.5252 53.0754C19.8623 53.2425 20.3603 52.4068 20.3603 51.7382V47.0651C12.8527 48.7365 11.1847 43.3949 11.1847 43.3949C10.0147 40.2227 8.17961 39.387 8.17961 39.387C5.67592 37.719 8.34334 37.719 8.34334 37.719C11.0142 37.8861 12.5184 40.5569 12.5184 40.5569C15.0221 44.7286 18.8595 43.5586 20.3637 42.8935C20.5275 41.0584 21.3632 39.8918 22.0317 39.2232C16.0215 38.5547 9.68045 36.2181 9.68045 25.702C9.68045 22.7003 10.6799 20.3603 12.5184 18.3581C12.3479 17.8566 11.3484 15.0221 12.8527 11.3484C12.8527 11.3484 15.1892 10.6799 20.3603 14.1864C22.5297 13.5178 24.8697 13.3507 27.2062 13.3507C29.5428 13.3507 31.8793 13.685 34.0487 14.1864C39.2232 10.6833 41.5598 11.3484 41.5598 11.3484C43.0606 15.0221 42.0578 17.8566 41.8906 18.5252C43.7288 20.5278 44.7425 23.1509 44.7286 25.8691C44.7286 36.3853 38.3841 38.5547 32.3807 39.2232C33.3802 40.0555 34.2159 41.7235 34.2159 44.2272V51.7382C34.2159 52.4068 34.7139 53.2391 36.051 53.0754C41.4609 51.2496 46.1601 47.7697 49.4844 43.1276C52.8087 38.4854 54.5899 32.9159 54.5762 27.2062C54.4091 12.1841 42.2283 0 27.2062 0Z" fill="#D35555"/>
</svg>
