<svg width="56" height="56" viewBox="0 0 56 56" fill="none" xmlns="http://www.w3.org/2000/svg">
<path d="M28 0C12.5358 0 0 12.5358 0 28C0 43.4642 12.5358 56 28 56C43.4642 56 56 43.4642 56 28C56 12.5358 43.4642 0 28 0ZM21.1458 39.6054H15.4758V21.3587H21.1458V39.6054ZM18.2758 19.1187C16.485 19.1187 15.3271 17.85 15.3271 16.2808C15.3271 14.6796 16.52 13.4487 18.3487 13.4487C20.1775 13.4487 21.2975 14.6796 21.3325 16.2808C21.3325 17.85 20.1775 19.1187 18.2758 19.1187ZM41.8542 39.6054H36.1842V29.4933C36.1842 27.1396 35.3617 25.5412 33.3112 25.5412C31.745 25.5412 30.8146 26.6233 30.4033 27.6646C30.2517 28.035 30.2137 28.56 30.2137 29.0821V39.6025H24.5408V27.1775C24.5408 24.8996 24.4679 22.995 24.3921 21.3558H29.3183L29.5779 23.8904H29.6917C30.4383 22.7004 32.2671 20.9446 35.3267 20.9446C39.0571 20.9446 41.8542 23.4442 41.8542 28.8167V39.6054Z" fill="#D35555"/>
</svg>
