<svg width="55" height="55" viewBox="0 0 55 55" fill="none" xmlns="http://www.w3.org/2000/svg">
<circle cx="27.5" cy="27.5" r="27.5" fill="#D35555"/>
<path d="M43.6875 14H11.3125C10.6992 14 10.111 14.2458 9.67732 14.6834C9.24364 15.121 9 15.7145 9 16.3333V39.6667C9 40.2855 9.24364 40.879 9.67732 41.3166C10.111 41.7542 10.6992 42 11.3125 42H43.6875C44.3008 42 44.889 41.7542 45.3227 41.3166C45.7564 40.879 46 40.2855 46 39.6667V16.3333C46 15.7145 45.7564 15.121 45.3227 14.6834C44.889 14.2458 44.3008 14 43.6875 14V14ZM41.9069 39.6667H13.2319L21.3256 31.22L19.6606 29.5983L11.3125 38.3133V18.1067L25.6847 32.5383C26.118 32.9729 26.7041 33.2168 27.315 33.2168C27.9259 33.2168 28.512 32.9729 28.9453 32.5383L43.6875 17.745V38.1617L35.1775 29.575L33.5472 31.22L41.9069 39.6667ZM12.8272 16.3333H41.8144L27.315 30.8817L12.8272 16.3333Z" fill="white"/>
</svg>
