<svg width="53" height="53" viewBox="0 0 53 53" fill="none" xmlns="http://www.w3.org/2000/svg">
<path d="M26.4987 0C11.8621 0 0 11.8647 0 26.4987C0 37.7241 6.98409 47.3209 16.8435 51.183C16.6101 49.0875 16.4032 45.8621 16.9337 43.5756C17.4164 41.5066 20.0424 30.4032 20.0424 30.4032C20.0424 30.4032 19.2493 28.8143 19.2493 26.4668C19.2493 22.7851 21.3846 20.0345 24.0451 20.0345C26.3077 20.0345 27.3979 21.7321 27.3979 23.7666C27.3979 26.0424 25.9496 29.4403 25.2042 32.5915C24.5809 35.2281 26.5278 37.3793 29.1273 37.3793C33.8355 37.3793 37.4589 32.4138 37.4589 25.244C37.4589 18.8992 32.8992 14.4642 26.3899 14.4642C18.8488 14.4642 14.4217 20.1194 14.4217 25.9629C14.4217 28.2387 15.2997 30.6817 16.3952 32.0106C16.4883 32.1107 16.5541 32.2331 16.5861 32.3659C16.6182 32.4988 16.6155 32.6377 16.5782 32.7692C16.3767 33.6048 15.9284 35.4058 15.8435 35.7745C15.7268 36.2599 15.4589 36.3634 14.9549 36.13C11.6472 34.5889 9.57825 29.7507 9.57825 25.8621C9.57825 17.504 15.6499 9.82758 27.0875 9.82758C36.2812 9.82758 43.4244 16.3767 43.4244 25.1326C43.4244 34.2679 37.6658 41.6127 29.6737 41.6127C26.9867 41.6127 24.4642 40.2201 23.5995 38.5729L21.9469 44.87C21.3501 47.1724 19.7347 50.0583 18.6552 51.8196C21.1966 52.6042 23.8416 53.0021 26.5013 53C41.1353 53 53 41.1353 53 26.5013C53 11.8674 41.1326 0 26.4987 0Z" fill="#D35555"/>
</svg>
