<svg width="96" height="90" viewBox="0 0 96 90" fill="none" xmlns="http://www.w3.org/2000/svg">
<path d="M95 45C95 69.2407 74.0192 89 48 89C21.9808 89 1 69.2407 1 45C1 20.7593 21.9808 1 48 1C74.0192 1 95 20.7593 95 45Z" fill="white" stroke="#D35555" stroke-width="2"/>
<path d="M61.0539 36C58.7842 36 56.7897 37.9257 56.7897 40.2641C56.7897 42.6025 58.7842 44.597 61.0539 44.597C63.3922 44.597 65.3867 42.6025 65.3867 40.2641C65.3867 37.9257 63.3922 36 61.0539 36ZM35.2628 36C32.9244 36 30.9299 37.9257 30.9299 40.2641C30.9299 42.6025 32.9244 44.597 35.2628 44.597C37.6012 44.597 39.5269 42.6025 39.5269 40.2641C39.5269 37.9257 37.6012 36 35.2628 36Z" fill="#D35555"/>
<path d="M48.399 56.8585C37.2573 56.8585 29.4856 54.245 20.8886 49.7058L18 53.4885C26.1844 59.8847 37.3261 63.5986 48.399 63.5986C59.472 63.5986 70.545 59.8847 78.7981 53.4885L75.9783 49.7058C67.3125 54.245 59.5408 56.8585 48.399 56.8585Z" fill="#D35555"/>
</svg>
